<?xml version="1.0" encoding="UTF-8" standalone="no"?>
<!-- Generator: Adobe Illustrator 16.0.4, SVG Export Plug-In . SVG Version: 6.00 Build 0)  -->

<svg
   xmlns:dc="http://purl.org/dc/elements/1.1/"
   xmlns:cc="http://creativecommons.org/ns#"
   xmlns:rdf="http://www.w3.org/1999/02/22-rdf-syntax-ns#"
   xmlns:svg="http://www.w3.org/2000/svg"
   xmlns="http://www.w3.org/2000/svg"
   xmlns:sodipodi="http://sodipodi.sourceforge.net/DTD/sodipodi-0.dtd"
   xmlns:inkscape="http://www.inkscape.org/namespaces/inkscape"
   version="1.1"
   id="Layer_1"
   x="0px"
   y="0px"
   width="960px"
   height="560px"
   viewBox="0 0 960 560"
   enable-background="new 0 0 960 560"
   xml:space="preserve"
   inkscape:version="0.48.5 r10040"
   sodipodi:docname="logo-4.svg"><metadata
     id="metadata110"><rdf:RDF><cc:Work
         rdf:about=""><dc:format>image/svg+xml</dc:format><dc:type
           rdf:resource="http://purl.org/dc/dcmitype/StillImage" /></cc:Work></rdf:RDF></metadata><defs
     id="defs108" /><sodipodi:namedview
     pagecolor="#ffffff"
     bordercolor="#666666"
     borderopacity="1"
     objecttolerance="10"
     gridtolerance="10"
     guidetolerance="10"
     inkscape:pageopacity="0"
     inkscape:pageshadow="2"
     inkscape:window-width="911"
     inkscape:window-height="574"
     id="namedview106"
     showgrid="false"
     inkscape:zoom="0.59599"
     inkscape:cx="480"
     inkscape:cy="280"
     inkscape:window-x="0"
     inkscape:window-y="0"
     inkscape:window-maximized="0"
     inkscape:current-layer="Layer_1" /><g
     id="g3089"
     transform="matrix(1.26,0,0,1.26,-124.7987,-72.80013)"><g
       id="g3"><polygon
         id="polygon5"
         points="147,285 147,333 168,333 168,348 110,348 110,333 131,333 131,228 110,228 110,213 167,213 167,228 147,228 147,271 173.342,271 209.77,213 240,213 240,228 218.805,228 186.494,277.831 222.354,333 244,333 244,348 213.35,348 173.371,285 " /><path
         id="path7"
         d="m 142.35,280 v 57.748 h 21.322 v 4.443 h -47.977 v -4.443 h 21.324 V 222.251 h -21.324 v -4.441 h 47.088 v 4.441 H 142.35 v 53.308 h 33.76 l 36.428,-57.749 h 23.1 v 4.441 H 216.09 l -35.537,55.084 39.092,60.413 h 19.545 v 4.443 h -23.1 L 176.109,280 H 142.35 z"
         inkscape:connector-curvature="0" /><path
         id="path9"
         d="m 308.48,351.633 c -18.68,0 -36.045,-7.281 -48.896,-20.504 -12.945,-13.318 -20.072,-31.475 -20.072,-51.129 0,-19.653 7.127,-37.811 20.072,-51.127 12.852,-13.223 30.217,-20.505 48.896,-20.505 18.678,0 36.043,7.282 48.895,20.505 12.945,13.317 20.072,31.475 20.072,51.127 0,19.655 -7.127,37.811 -20.072,51.129 -12.852,13.223 -30.217,20.504 -48.895,20.504 z m 0,-128.824 c -30.078,0 -53.639,25.121 -53.639,57.19 0,32.071 23.561,57.192 53.639,57.192 30.076,0 53.637,-25.121 53.637,-57.192 0,-32.069 -23.56,-57.19 -53.637,-57.19 z"
         inkscape:connector-curvature="0" /><path
         id="path11"
         d="m 308.49,213.367 c 35.537,0 63.967,28.43 63.967,66.633 0,38.203 -28.43,66.633 -63.967,66.633 -35.539,0 -63.969,-28.43 -63.969,-66.633 0,-38.203 28.43,-66.633 63.969,-66.633 z m 0,4.443 c -31.984,0 -58.639,26.653 -58.639,62.19 0,35.537 26.654,62.191 58.639,62.191 31.982,0 58.637,-26.654 58.637,-62.191 0,-35.537 -26.654,-62.19 -58.637,-62.19 z"
         inkscape:connector-curvature="0" /><polygon
         id="polygon13"
         points="418,228 418,333 439,333 439,348 381,348 381,333 402,333 402,228 381,228 381,213 524,213 524,228 503,228 503,333 524,333 524,348 488,348 488,228 " /><path
         id="path15"
         d="m 519.938,217.81 v 4.441 h -21.322 v 115.497 h 21.322 v 4.443 h -26.652 v -119.94 h -79.959 v 115.497 h 21.322 v 4.443 h -47.977 v -4.443 h 21.322 V 222.251 h -21.322 v -4.441 h 133.266 z"
         inkscape:connector-curvature="0" /><g
         id="g17"><polygon
           id="polygon19"
           points="571,233 571,247 577,247 577,249 563,249 563,247 569,247 569,217 563,217 563,214 577,214 577,217 571,217 571,230 579.953,230 589.807,214 596,214 596,217 591.533,217 582.371,231.278 592.494,247 598,247 598,249 590.773,249 579.957,233 " /><path
           id="path21"
           d="m 571.215,231.379 v 15.622 h 5.768 v 1.202 h -12.977 v -1.202 h 5.768 v -31.244 h -5.768 v -1.202 h 12.736 v 1.202 h -5.527 v 14.421 h 9.135 l 9.854,-15.623 h 6.248 v 1.202 h -5.287 l -9.613,14.9 10.574,16.344 h 5.287 v 1.202 h -6.248 l -10.814,-16.824 h -9.136 z"
           inkscape:connector-curvature="0" /><path
           id="path23"
           d="m 617.107,250.102 c -10.096,0 -18.002,-8.224 -18.002,-18.723 0,-10.499 7.906,-18.723 18.002,-18.723 10.094,0 18.002,8.224 18.002,18.723 0,10.499 -7.908,18.723 -18.002,18.723 z m 0,-34.85 c -8.504,0 -15.166,7.083 -15.166,16.126 0,9.042 6.662,16.126 15.166,16.126 8.502,0 15.164,-7.083 15.164,-16.126 0,-9.042 -6.662,-16.126 -15.164,-16.126 z"
           inkscape:connector-curvature="0" /><path
           id="path25"
           d="m 617.117,213.354 c 9.613,0 17.305,7.69 17.305,18.025 0,10.335 -7.691,18.025 -17.305,18.025 -9.614,0 -17.305,-7.69 -17.305,-18.025 0,-10.335 7.692,-18.025 17.305,-18.025 z m 0,1.201 c -8.652,0 -15.863,7.211 -15.863,16.824 0,9.613 7.211,16.824 15.863,16.824 8.65,0 15.861,-7.211 15.861,-16.824 0,-9.613 -7.21,-16.824 -15.861,-16.824 z"
           inkscape:connector-curvature="0" /><polygon
           id="polygon27"
           points="646,233 646,247 652,247 652,249 637,249 637,247 643,247 643,217 637,217 637,214 646,214 646,230 666,230 666,217 660,217 660,214 675,214 675,217 669,217 669,247 675,247 675,249 666,249 666,233 " /><path
           id="path29"
           d="m 645.473,230.178 h 21.631 v -14.421 h -5.768 v -1.202 h 12.979 v 1.202 h -5.77 v 31.244 h 5.77 v 1.202 h -7.211 v -16.824 h -21.631 v 15.622 h 5.768 v 1.202 h -12.979 v -1.202 h 5.77 v -31.244 h -5.77 v -1.202 h 7.211 v 15.623 z"
           inkscape:connector-curvature="0" /><polygon
           id="polygon31"
           points="690,247 690,217 680,217 680,226 677,226 677,214 706,214 706,226 704,226 704,217 693,217 693,247 699,247 699,249 684,249 684,247 " /><path
           id="path33"
           d="m 692.816,247.001 h 6.248 v 1.202 h -13.939 v -1.202 h 6.25 v -31.244 h -12.018 v 8.893 h -1.201 v -10.095 h 27.879 v 10.095 h -1.201 v -8.893 h -12.018 v 31.244 z"
           inkscape:connector-curvature="0" /><path
           id="path35"
           d="m 709,249 v -2 h 5 v -30 h -5 v -3 h 19.613 c 7.029,0 11.754,4.332 11.754,10.5 0,6.168 -4.725,10.5 -11.754,10.5 H 717 v 12 h 6 v 2 h -14 z m 19.613,-16 c 5.334,0 8.916,-3.386 8.916,-8 0,-4.614 -3.582,-8 -8.916,-8 H 717 v 16 h 11.613 z"
           inkscape:connector-curvature="0" /><path
           id="path37"
           d="m 717.086,247.001 h 5.77 v 1.202 h -12.979 v -1.202 h 5.768 v -31.244 h -5.768 v -1.202 h 18.746 c 6.971,0 11.057,4.086 11.057,9.614 0,5.527 -4.086,9.613 -11.057,9.613 h -11.537 v 13.219 z m 0,-14.421 h 11.537 c 6.01,0 9.613,-3.604 9.613,-8.411 0,-4.807 -3.604,-8.412 -9.613,-8.412 h -11.537 v 16.823 z"
           inkscape:connector-curvature="0" /><path
           id="path39"
           d="m 760.816,250.102 c -10.096,0 -18.002,-8.224 -18.002,-18.723 0,-10.499 7.906,-18.723 18.002,-18.723 10.094,0 18.002,8.224 18.002,18.723 0,10.499 -7.908,18.723 -18.002,18.723 z m 0,-34.85 c -8.504,0 -15.164,7.083 -15.164,16.126 0,9.042 6.66,16.126 15.164,16.126 8.504,0 15.164,-7.083 15.164,-16.126 0,-9.042 -6.66,-16.126 -15.164,-16.126 z"
           inkscape:connector-curvature="0" /><path
           id="path41"
           d="m 760.826,213.354 c 9.613,0 17.305,7.69 17.305,18.025 0,10.335 -7.691,18.025 -17.305,18.025 -9.614,0 -17.305,-7.69 -17.305,-18.025 0,-10.335 7.692,-18.025 17.305,-18.025 z m 0,1.201 c -8.652,0 -15.863,7.211 -15.863,16.824 0,9.613 7.211,16.824 15.863,16.824 8.652,0 15.861,-7.211 15.861,-16.824 0,-9.613 -7.208,-16.824 -15.861,-16.824 z"
           inkscape:connector-curvature="0" /><path
           id="path43"
           d="m 782.924,250.102 c -2.109,0 -3.686,-1.034 -3.752,-1.079 l -0.465,-0.31 1.031,-2.683 0.75,0.629 c 0.008,0.006 1.043,0.846 2.436,0.846 3.533,0 5.871,-3.67 6.758,-11.13 L 791.992,217 H 786 v -3 h 32 v 3 h -7 v 30 h 7 v 2 h -15 v -2 h 6 v -30 h -14.16 l -2.332,19.54 c -1.074,9.18 -4.299,13.562 -9.584,13.562 z"
           inkscape:connector-curvature="0" /><path
           id="path45"
           d="m 791.826,236.186 c -1.154,9.854 -4.566,13.219 -8.893,13.219 -1.924,0 -3.365,-0.961 -3.365,-0.961 l 0.48,-1.25 c 0,0 1.201,1.01 2.885,1.01 3.365,0 6.393,-3.125 7.451,-12.018 l 2.402,-20.429 H 787.5 v -1.202 h 29.562 v 1.202 h -5.77 v 31.244 h 5.77 v 1.202 h -12.979 v -1.202 h 5.768 v -31.244 h -15.623 l -2.402,20.429 z"
           inkscape:connector-curvature="0" /><path
           id="path47"
           d="m 819,249 v -2 h 6 v -30 h -6 v -3 h 14 v 3 h -6 v 11 h 10.719 c 7.316,0 12.232,4.045 12.232,10.5 0,6.455 -4.916,10.5 -12.232,10.5 H 819 z m 18.719,-2 c 5.619,0 9.396,-3.599 9.396,-8.5 0,-4.901 -3.777,-8.5 -9.396,-8.5 H 827 v 17 h 10.719 z"
           inkscape:connector-curvature="0" /><path
           id="path49"
           d="m 827.152,228.014 h 10.576 c 7.209,0 11.535,4.327 11.535,10.095 0,5.769 -4.326,10.095 -11.535,10.095 h -17.787 v -1.202 h 5.77 v -31.244 h -5.77 v -1.202 h 12.979 v 1.202 h -5.768 v 12.256 z m 0,18.987 h 10.576 c 6.248,0 10.094,-3.845 10.094,-8.893 0,-5.047 -3.846,-8.893 -10.094,-8.893 h -10.576 v 17.786 z"
           inkscape:connector-curvature="0" /></g><g
         id="g51"><path
           id="path53"
           d="m 579.271,259.313 c 8.574,0 15.434,6.859 15.434,16.077 0,9.217 -6.859,16.076 -15.434,16.076 -8.575,0 -15.434,-6.859 -15.434,-16.076 10e-4,-9.217 6.86,-16.077 15.434,-16.077 z m 0,1.072 c -7.717,0 -14.148,6.431 -14.148,15.006 0,8.574 6.432,15.006 14.148,15.006 7.716,0 14.148,-6.432 14.148,-15.006 10e-4,-8.576 -6.431,-15.006 -14.148,-15.006 z"
           inkscape:connector-curvature="0" /><path
           id="path55"
           d="m 612.066,289.324 h 5.572 v 1.072 h -12.432 v -1.072 h 5.572 v -27.867 h -10.719 v 7.931 h -1.07 v -9.003 h 24.865 v 9.003 h -1.072 v -7.931 h -10.717 v 27.867 z"
           inkscape:connector-curvature="0" /><path
           id="path57"
           d="m 626.426,290.396 v 6.859 h -1.287 v -7.932 h 1.287 c 0,0 5.145,-2.359 6.002,-9.646 l 2.145,-18.221 h -4.717 v -1.072 h 26.367 v 1.072 h -5.146 v 27.867 h 4.932 v 7.932 h -1.287 v -6.859 h -28.296 z m 1.929,-1.072 h 21.436 v -27.867 h -13.934 l -2.143,18.221 c -0.857,7.287 -5.359,9.432 -5.359,9.432 v 0.214 z"
           inkscape:connector-curvature="0" /><path
           id="path59"
           d="m 658.791,289.324 h 5.145 v -27.867 h -5.145 v -1.072 h 24.867 v 8.574 h -1.072 v -7.502 h -17.363 v 12.861 h 11.576 v 1.072 h -11.576 v 13.934 h 17.363 v -7.504 h 1.072 v 8.576 h -24.867 v -1.072 z"
           inkscape:connector-curvature="0" /><path
           id="path61"
           d="m 697.16,279.678 c -1.029,8.789 -4.072,11.789 -7.932,11.789 -1.715,0 -3.002,-0.857 -3.002,-0.857 l 0.43,-1.113 c 0,0 1.072,0.9 2.572,0.9 3.002,0 5.703,-2.787 6.645,-10.719 l 2.145,-18.221 h -4.717 v -1.072 h 26.367 v 1.072 h -5.145 v 27.867 h 5.145 v 1.072 h -11.574 v -1.072 h 5.143 v -27.867 h -13.932 l -2.145,18.221 z"
           inkscape:connector-curvature="0" /><path
           id="path63"
           d="m 722.238,289.324 h 5.145 v -27.867 h -5.145 v -1.072 h 24.865 v 8.574 h -1.072 v -7.502 h -17.363 v 12.861 h 11.576 v 1.072 h -11.576 v 13.934 h 17.363 v -7.504 h 1.072 v 8.576 h -24.865 v -1.072 z"
           inkscape:connector-curvature="0" /><path
           id="path65"
           d="m 757.391,274.318 h 19.293 v -12.861 h -5.145 v -1.072 h 11.576 v 1.072 h -5.146 v 27.867 h 5.146 v 1.072 h -6.432 V 275.39 H 757.39 v 13.934 h 5.145 v 1.072 h -11.574 v -1.072 h 5.143 v -27.867 h -5.143 v -1.072 h 6.43 v 13.933 z"
           inkscape:connector-curvature="0" /><path
           id="path67"
           d="m 818.268,260.385 v 1.072 h -5.145 v 27.867 h 5.145 v 1.072 h -11.576 v -1.072 h 5.145 v -27.011 h -0.215 l -19.291,28.083 h -6.646 v -1.072 h 5.145 v -27.867 h -5.145 v -1.072 h 11.576 v 1.072 h -5.145 v 27.01 h 0.215 l 19.291,-28.082 h 6.646 z"
           inkscape:connector-curvature="0" /><path
           id="path69"
           d="m 831.982,277.748 v -0.215 c -4.715,-0.428 -8.146,-3.857 -8.146,-8.574 0,-4.931 3.645,-8.574 9.861,-8.574 h 16.293 v 1.072 h -5.146 v 27.867 h 5.146 v 1.072 h -11.576 v -1.072 h 5.145 v -11.791 h -10.074 l -8.361,12.863 h -5.574 v -1.072 h 4.717 l 7.715,-11.576 z m 11.577,-16.291 h -9.861 c -5.359,0 -8.574,3.215 -8.574,7.502 0,4.287 3.215,7.503 8.574,7.503 h 9.861 v -15.005 z"
           inkscape:connector-curvature="0" /></g><g
         id="g71"><polygon
           id="polygon73"
           points="573,308 573,339 579,339 579,342 564,342 564,339 571,339 571,308 564,308 564,305 603,305 603,308 597,308 597,339 603,339 603,342 594,342 594,308 " /><path
           id="path75"
           d="m 603.24,305.355 v 1.26 h -6.051 v 32.781 h 6.051 v 1.262 h -7.564 v -34.043 h -22.693 v 32.781 h 6.051 v 1.262 h -13.615 v -1.262 h 6.051 v -32.781 h -6.051 v -1.26 h 37.821 z"
           inkscape:connector-curvature="0" /><path
           id="path77"
           d="m 625.424,342.615 c -10.572,0 -18.854,-8.613 -18.854,-19.607 0,-10.996 8.281,-19.611 18.854,-19.611 10.573,0 18.854,8.615 18.854,19.611 -10e-4,10.994 -8.282,19.607 -18.854,19.607 z m 0,-36.562 c -8.941,0 -15.945,7.447 -15.945,16.955 0,9.506 7.004,16.953 15.945,16.953 8.939,0 15.945,-7.447 15.945,-16.953 0,-9.508 -7.006,-16.955 -15.945,-16.955 z"
           inkscape:connector-curvature="0" /><path
           id="path79"
           d="m 625.434,304.096 c 10.086,0 18.154,8.068 18.154,18.912 0,10.842 -8.068,18.91 -18.154,18.91 -10.086,0 -18.156,-8.068 -18.156,-18.91 -10e-4,-10.844 8.07,-18.912 18.156,-18.912 z m 0,1.259 c -9.078,0 -16.643,7.564 -16.643,17.652 0,10.086 7.564,17.65 16.643,17.65 9.079,0 16.643,-7.564 16.643,-17.65 -10e-4,-10.087 -7.565,-17.652 -16.643,-17.652 z"
           inkscape:connector-curvature="0" /><path
           id="path81"
           d="m 648.625,342.615 c -2.203,0 -3.848,-1.078 -3.918,-1.125 l -0.465,-0.311 1.057,-2.744 0.748,0.629 c 0.01,0.008 1.104,0.896 2.578,0.896 3.727,0 6.189,-3.805 7.123,-11.65 l 2.43,-20.311 H 652 v -3 h 33 v 3 h -6 v 31 h 6 v 3 h -15 v -3 h 6 v -31 h -14.902 l -2.451,20.475 c -1.126,9.61 -4.497,14.141 -10.022,14.141 z"
           inkscape:connector-curvature="0" /><path
           id="path83"
           d="m 657.965,328.049 c -1.211,10.34 -4.793,13.869 -9.33,13.869 -2.018,0 -3.531,-1.008 -3.531,-1.008 l 0.504,-1.311 c 0,0 1.262,1.059 3.027,1.059 3.529,0 6.707,-3.279 7.816,-12.609 l 2.521,-21.434 h -5.547 v -1.26 h 31.016 v 1.26 h -6.053 v 32.781 h 6.053 v 1.262 h -13.617 v -1.262 h 6.053 v -32.781 h -16.391 l -2.521,21.434 z"
           inkscape:connector-curvature="0" /><polygon
           id="polygon85"
           points="717,339 717,309.506 695.643,342 686,342 686,339 693,339 693,308 686,308 686,305 701,305 701,308 696,308 696,336.508 717.604,305 726,305 726,308 720,308 720,339 726,339 726,342 711,342 711,339 " /><path
           id="path87"
           d="m 725.797,305.355 v 1.26 h -6.053 v 32.781 h 6.053 v 1.262 H 712.18 v -1.262 h 6.053 v -31.771 h -0.252 l -22.695,33.033 h -7.816 v -1.262 h 6.051 v -32.781 h -6.051 v -1.26 h 13.617 v 1.26 h -6.053 v 31.773 h 0.252 l 22.695,-33.033 h 7.816 z"
           inkscape:connector-curvature="0" /><polygon
           id="polygon89"
           points="728,342 728,339 734,339 734,308 728,308 728,305 737,305 737,339 758,339 758,308 751,308 751,305 767,305 767,308 760,308 760,339 766,339 766,350 763,350 763,342 " /><path
           id="path91"
           d="m 728.824,340.658 v -1.262 h 6.051 v -32.781 h -6.051 v -1.26 h 7.564 v 34.041 h 22.191 v -32.781 h -6.053 v -1.26 h 13.617 v 1.26 h -6.053 v 32.781 h 5.799 v 9.33 h -1.512 v -8.068 h -35.553 z"
           inkscape:connector-curvature="0" /><polygon
           id="polygon93"
           points="799,339 799,309.506 777.346,342 768,342 768,339 774,339 774,308 768,308 768,305 783,305 783,308 777,308 777,336.508 799.305,305 808,305 808,308 802,308 802,339 808,339 808,342 793,342 793,339 " /><path
           id="path95"
           d="m 807.498,305.355 v 1.26 h -6.051 v 32.781 h 6.051 v 1.262 h -13.615 v -1.262 h 6.051 v -31.771 h -0.252 l -22.693,33.033 h -7.816 v -1.262 h 6.051 v -32.781 h -6.051 v -1.26 h 13.615 v 1.26 h -6.051 v 31.773 h 0.252 l 22.693,-33.033 h 7.816 z"
           inkscape:connector-curvature="0" /><polygon
           id="polygon97"
           points="840,339 840,309.506 818.701,342 809,342 809,339 816,339 816,308 809,308 809,305 825,305 825,308 818,308 818,336.508 840.662,305 849,305 849,308 843,308 843,339 849,339 849,342 834,342 834,339 " /><path
           id="path99"
           d="m 848.855,305.355 v 1.26 h -6.053 v 32.781 h 6.053 v 1.262 h -13.617 v -1.262 h 6.053 v -31.771 h -0.252 l -22.695,33.033 h -7.816 v -1.262 h 6.051 v -32.781 h -6.051 v -1.26 h 13.617 v 1.26 h -6.053 v 31.773 h 0.252 l 22.695,-33.033 h 7.816 z"
           inkscape:connector-curvature="0" /></g><g
         id="Your_Icon_3_"><path
           id="path102"
           d="m 305.477,318.43 c -7.676,0 -13.629,-6.895 -17.227,-19.926 -1.244,-4.508 0.592,-8.734 2.369,-12.818 2.131,-4.892 4.139,-9.511 1.646,-14.898 -4.824,-10.42 -8.459,-16.301 -8.492,-16.36 l -0.699,-1.126 10.43,-3.15 0.402,0.698 c 0.719,1.24 17.49,30.384 19.24,35.323 0.217,0.602 0.586,1.479 1.018,2.49 2.279,5.381 6.533,15.395 3.641,22.422 -1.135,2.766 -3.258,4.799 -6.312,6.053 -2.085,0.856 -4.11,1.292 -6.016,1.292 z m -19.303,-63.943 c 1.285,2.201 4.273,7.539 7.938,15.446 2.875,6.219 0.484,11.717 -1.631,16.564 -1.705,3.934 -3.324,7.648 -2.273,11.465 2.32,8.406 6.854,18.432 15.268,18.432 1.639,0 3.406,-0.383 5.248,-1.137 2.566,-1.055 4.268,-2.674 5.203,-4.947 2.566,-6.244 -1.467,-15.746 -3.633,-20.854 -0.461,-1.088 -0.824,-1.947 -1.061,-2.605 -1.547,-4.357 -16.064,-29.732 -18.684,-34.288 l -6.375,1.924 z"
           inkscape:connector-curvature="0" /><path
           id="path104"
           d="m 283.635,252.899 15.521,-8.617 9.658,-2.712 c 0,0 16.947,30.792 19.799,37.812 2.852,7.018 9.701,23.17 1.107,28.396 -8.596,5.23 -19.32,9.594 -19.32,9.594 0,0 6.613,-3.859 7.264,-7.355 0.656,-3.5 2.924,-10.867 -10.564,-35.029 -13.486,-24.163 -13.486,-24.163 -13.486,-24.163 l -9.025,3.352 -0.954,-1.278 z m 43.922,33.589 -10.926,5.344 1.188,3.893 11.008,-5.061 -1.27,-4.176 z"
           inkscape:connector-curvature="0" /></g></g></g></svg>