<?xml version="1.0" encoding="utf-8"?>
<!-- Generator: Adobe Illustrator 16.0.4, SVG Export Plug-In . SVG Version: 6.00 Build 0)  -->
<!DOCTYPE svg PUBLIC "-//W3C//DTD SVG 1.1//EN" "http://www.w3.org/Graphics/SVG/1.1/DTD/svg11.dtd">
<svg version="1.1" id="Layer_1" xmlns="http://www.w3.org/2000/svg" xmlns:xlink="http://www.w3.org/1999/xlink" x="0px" y="0px"
	 width="960px" height="560px" viewBox="0 0 960 560" enable-background="new 0 0 960 560" xml:space="preserve">
<g>
	<polygon points="213.35,348 173.371,285 147,285 147,333 168,333 168,348 110,348 110,333 131,333 131,228 110,228 110,213 
		167,213 167,228 147,228 147,271 173.342,271 209.77,213 240,213 240,228 218.805,228 186.494,277.831 222.354,333 244,333 
		244,348 	"/>
	<path d="M142.35,280v57.748h21.322v4.443h-47.977v-4.443h21.324V222.251h-21.324v-4.441h47.088v4.441H142.35v53.308h33.76
		l36.428-57.749h23.1v4.441H216.09l-35.537,55.084l39.092,60.413h19.545v4.443h-23.1L176.109,280H142.35z"/>
	<path d="M308.48,351.633c-18.68,0-36.045-7.281-48.896-20.504c-12.945-13.318-20.072-31.475-20.072-51.129
		c0-19.653,7.127-37.811,20.072-51.127c12.852-13.223,30.217-20.505,48.896-20.505c18.678,0,36.043,7.282,48.895,20.505
		c12.945,13.317,20.072,31.475,20.072,51.127c0,19.655-7.127,37.811-20.072,51.129C344.523,344.352,327.158,351.633,308.48,351.633z
		 M308.48,222.809c-30.078,0-53.639,25.121-53.639,57.19c0,32.071,23.561,57.192,53.639,57.192
		c30.076,0,53.637-25.121,53.637-57.192C362.117,247.93,338.557,222.809,308.48,222.809z"/>
	<path d="M308.49,213.367c35.537,0,63.967,28.43,63.967,66.633s-28.43,66.633-63.967,66.633c-35.539,0-63.969-28.43-63.969-66.633
		S272.951,213.367,308.49,213.367z M308.49,217.81c-31.984,0-58.639,26.653-58.639,62.19s26.654,62.191,58.639,62.191
		c31.982,0,58.637-26.654,58.637-62.191S340.473,217.81,308.49,217.81z"/>
	<polygon points="488,348 488,228 418,228 418,333 439,333 439,348 381,348 381,333 402,333 402,228 381,228 381,213 524,213 
		524,228 503,228 503,333 524,333 524,348 	"/>
	<path d="M519.938,217.81v4.441h-21.322v115.497h21.322v4.443h-26.652v-119.94h-79.959v115.497h21.322v4.443h-47.977v-4.443h21.322
		V222.251h-21.322v-4.441H519.938z"/>
	<g>
		<polygon points="590.773,249 579.957,233 571,233 571,247 577,247 577,249 563,249 563,247 569,247 569,217 563,217 563,214 
			577,214 577,217 571,217 571,230 579.953,230 589.807,214 596,214 596,217 591.533,217 582.371,231.278 592.494,247 598,247 
			598,249 		"/>
		<path d="M571.215,231.379v15.622h5.768v1.202h-12.977v-1.202h5.768v-31.244h-5.768v-1.202h12.736v1.202h-5.527v14.421h9.135
			l9.854-15.623h6.248v1.202h-5.287l-9.613,14.9l10.574,16.344h5.287v1.202h-6.248l-10.814-16.824H571.215z"/>
		<path d="M617.107,250.102c-10.096,0-18.002-8.224-18.002-18.723s7.906-18.723,18.002-18.723c10.094,0,18.002,8.224,18.002,18.723
			S627.201,250.102,617.107,250.102z M617.107,215.252c-8.504,0-15.166,7.083-15.166,16.126c0,9.042,6.662,16.126,15.166,16.126
			c8.502,0,15.164-7.083,15.164-16.126C632.271,222.336,625.609,215.252,617.107,215.252z"/>
		<path d="M617.117,213.354c9.613,0,17.305,7.69,17.305,18.025s-7.691,18.025-17.305,18.025s-17.305-7.69-17.305-18.025
			S607.504,213.354,617.117,213.354z M617.117,214.555c-8.652,0-15.863,7.211-15.863,16.824s7.211,16.824,15.863,16.824
			c8.65,0,15.861-7.211,15.861-16.824S625.768,214.555,617.117,214.555z"/>
		<polygon points="666,249 666,233 646,233 646,247 652,247 652,249 637,249 637,247 643,247 643,217 637,217 637,214 646,214 
			646,230 666,230 666,217 660,217 660,214 675,214 675,217 669,217 669,247 675,247 675,249 		"/>
		<path d="M645.473,230.178h21.631v-14.421h-5.768v-1.202h12.979v1.202h-5.77v31.244h5.77v1.202h-7.211v-16.824h-21.631v15.622
			h5.768v1.202h-12.979v-1.202h5.77v-31.244h-5.77v-1.202h7.211V230.178z"/>
		<polygon points="684,249 684,247 690,247 690,217 680,217 680,226 677,226 677,214 706,214 706,226 704,226 704,217 693,217 
			693,247 699,247 699,249 		"/>
		<path d="M692.816,247.001h6.248v1.202h-13.939v-1.202h6.25v-31.244h-12.018v8.893h-1.201v-10.095h27.879v10.095h-1.201v-8.893
			h-12.018V247.001z"/>
		<path d="M709,249v-2h5v-30h-5v-3h19.613c7.029,0,11.754,4.332,11.754,10.5s-4.725,10.5-11.754,10.5H717v12h6v2H709z M728.613,233
			c5.334,0,8.916-3.386,8.916-8s-3.582-8-8.916-8H717v16H728.613z"/>
		<path d="M717.086,247.001h5.77v1.202h-12.979v-1.202h5.768v-31.244h-5.768v-1.202h18.746c6.971,0,11.057,4.086,11.057,9.614
			c0,5.527-4.086,9.613-11.057,9.613h-11.537V247.001z M717.086,232.58h11.537c6.01,0,9.613-3.604,9.613-8.411
			s-3.604-8.412-9.613-8.412h-11.537V232.58z"/>
		<path d="M760.816,250.102c-10.096,0-18.002-8.224-18.002-18.723s7.906-18.723,18.002-18.723c10.094,0,18.002,8.224,18.002,18.723
			S770.91,250.102,760.816,250.102z M760.816,215.252c-8.504,0-15.164,7.083-15.164,16.126c0,9.042,6.66,16.126,15.164,16.126
			s15.164-7.083,15.164-16.126C775.98,222.336,769.32,215.252,760.816,215.252z"/>
		<path d="M760.826,213.354c9.613,0,17.305,7.69,17.305,18.025s-7.691,18.025-17.305,18.025s-17.305-7.69-17.305-18.025
			S751.213,213.354,760.826,213.354z M760.826,214.555c-8.652,0-15.863,7.211-15.863,16.824s7.211,16.824,15.863,16.824
			s15.861-7.211,15.861-16.824S769.479,214.555,760.826,214.555z"/>
		<path d="M782.924,250.102c-2.109,0-3.686-1.034-3.752-1.079l-0.465-0.31l1.031-2.683l0.75,0.629
			c0.008,0.006,1.043,0.846,2.436,0.846c3.533,0,5.871-3.67,6.758-11.13L791.992,217H786v-3h32v3h-7v30h7v2h-15v-2h6v-30h-14.16
			l-2.332,19.54C791.434,245.72,788.209,250.102,782.924,250.102z"/>
		<path d="M791.826,236.186c-1.154,9.854-4.566,13.219-8.893,13.219c-1.924,0-3.365-0.961-3.365-0.961l0.48-1.25
			c0,0,1.201,1.01,2.885,1.01c3.365,0,6.393-3.125,7.451-12.018l2.402-20.429H787.5v-1.202h29.562v1.202h-5.77v31.244h5.77v1.202
			h-12.979v-1.202h5.768v-31.244h-15.623L791.826,236.186z"/>
		<path d="M819,249v-2h6v-30h-6v-3h14v3h-6v11h10.719c7.316,0,12.232,4.045,12.232,10.5s-4.916,10.5-12.232,10.5H819z M837.719,247
			c5.619,0,9.396-3.599,9.396-8.5s-3.777-8.5-9.396-8.5H827v17H837.719z"/>
		<path d="M827.152,228.014h10.576c7.209,0,11.535,4.327,11.535,10.095c0,5.769-4.326,10.095-11.535,10.095h-17.787v-1.202h5.77
			v-31.244h-5.77v-1.202h12.979v1.202h-5.768V228.014z M827.152,247.001h10.576c6.248,0,10.094-3.845,10.094-8.893
			c0-5.047-3.846-8.893-10.094-8.893h-10.576V247.001z"/>
	</g>
	<g>
		<path d="M579.271,259.313c8.574,0,15.434,6.859,15.434,16.077c0,9.217-6.859,16.076-15.434,16.076s-15.434-6.859-15.434-16.076
			C563.838,266.173,570.697,259.313,579.271,259.313z M579.271,260.385c-7.717,0-14.148,6.431-14.148,15.006
			c0,8.574,6.432,15.006,14.148,15.006s14.148-6.432,14.148-15.006C593.42,266.815,586.988,260.385,579.271,260.385z"/>
		<path d="M612.066,289.324h5.572v1.072h-12.432v-1.072h5.572v-27.867h-10.719v7.931h-1.07v-9.003h24.865v9.003h-1.072v-7.931
			h-10.717V289.324z"/>
		<path d="M626.426,290.396v6.859h-1.287v-7.932h1.287c0,0,5.145-2.359,6.002-9.646l2.145-18.221h-4.717v-1.072h26.367v1.072h-5.146
			v27.867h4.932v7.932h-1.287v-6.859H626.426z M628.355,289.324h21.436v-27.867h-13.934l-2.143,18.221
			c-0.857,7.287-5.359,9.432-5.359,9.432V289.324z"/>
		<path d="M658.791,289.324h5.145v-27.867h-5.145v-1.072h24.867v8.574h-1.072v-7.502h-17.363v12.861h11.576v1.072h-11.576v13.934
			h17.363v-7.504h1.072v8.576h-24.867V289.324z"/>
		<path d="M697.16,279.678c-1.029,8.789-4.072,11.789-7.932,11.789c-1.715,0-3.002-0.857-3.002-0.857l0.43-1.113
			c0,0,1.072,0.9,2.572,0.9c3.002,0,5.703-2.787,6.645-10.719l2.145-18.221h-4.717v-1.072h26.367v1.072h-5.145v27.867h5.145v1.072
			h-11.574v-1.072h5.143v-27.867h-13.932L697.16,279.678z"/>
		<path d="M722.238,289.324h5.145v-27.867h-5.145v-1.072h24.865v8.574h-1.072v-7.502h-17.363v12.861h11.576v1.072h-11.576v13.934
			h17.363v-7.504h1.072v8.576h-24.865V289.324z"/>
		<path d="M757.391,274.318h19.293v-12.861h-5.145v-1.072h11.576v1.072h-5.146v27.867h5.146v1.072h-6.432v-15.006h-19.293v13.934
			h5.145v1.072h-11.574v-1.072h5.143v-27.867h-5.143v-1.072h6.43V274.318z"/>
		<path d="M818.268,260.385v1.072h-5.145v27.867h5.145v1.072h-11.576v-1.072h5.145v-27.011h-0.215l-19.291,28.083h-6.646v-1.072
			h5.145v-27.867h-5.145v-1.072h11.576v1.072h-5.145v27.01h0.215l19.291-28.082H818.268z"/>
		<path d="M831.982,277.748v-0.215c-4.715-0.428-8.146-3.857-8.146-8.574c0-4.931,3.645-8.574,9.861-8.574h16.293v1.072h-5.146
			v27.867h5.146v1.072h-11.576v-1.072h5.145v-11.791h-10.074l-8.361,12.863h-5.574v-1.072h4.717L831.982,277.748z M843.559,261.457
			h-9.861c-5.359,0-8.574,3.215-8.574,7.502s3.215,7.503,8.574,7.503h9.861V261.457z"/>
	</g>
	<g>
		<polygon points="594,342 594,308 573,308 573,339 579,339 579,342 564,342 564,339 571,339 571,308 564,308 564,305 603,305 
			603,308 597,308 597,339 603,339 603,342 		"/>
		<path d="M603.24,305.355v1.26h-6.051v32.781h6.051v1.262h-7.564v-34.043h-22.693v32.781h6.051v1.262h-13.615v-1.262h6.051v-32.781
			h-6.051v-1.26H603.24z"/>
		<path d="M625.424,342.615c-10.572,0-18.854-8.613-18.854-19.607c0-10.996,8.281-19.611,18.854-19.611s18.854,8.615,18.854,19.611
			C644.277,334.002,635.996,342.615,625.424,342.615z M625.424,306.053c-8.941,0-15.945,7.447-15.945,16.955
			c0,9.506,7.004,16.953,15.945,16.953c8.939,0,15.945-7.447,15.945-16.953C641.369,313.5,634.363,306.053,625.424,306.053z"/>
		<path d="M625.434,304.096c10.086,0,18.154,8.068,18.154,18.912c0,10.842-8.068,18.91-18.154,18.91s-18.156-8.068-18.156-18.91
			C607.277,312.164,615.348,304.096,625.434,304.096z M625.434,305.355c-9.078,0-16.643,7.564-16.643,17.652
			c0,10.086,7.564,17.65,16.643,17.65s16.643-7.564,16.643-17.65C642.076,312.92,634.512,305.355,625.434,305.355z"/>
		<path d="M648.625,342.615c-2.203,0-3.848-1.078-3.918-1.125l-0.465-0.311l1.057-2.744l0.748,0.629
			c0.01,0.008,1.104,0.896,2.578,0.896c3.727,0,6.189-3.805,7.123-11.65l2.43-20.311H652v-3h33v3h-6v31h6v3h-15v-3h6v-31h-14.902
			l-2.451,20.475C657.521,338.084,654.15,342.615,648.625,342.615z"/>
		<path d="M657.965,328.049c-1.211,10.34-4.793,13.869-9.33,13.869c-2.018,0-3.531-1.008-3.531-1.008l0.504-1.311
			c0,0,1.262,1.059,3.027,1.059c3.529,0,6.707-3.279,7.816-12.609l2.521-21.434h-5.547v-1.26h31.016v1.26h-6.053v32.781h6.053v1.262
			h-13.617v-1.262h6.053v-32.781h-16.391L657.965,328.049z"/>
		<polygon points="711,342 711,339 717,339 717,309.506 695.643,342 686,342 686,339 693,339 693,308 686,308 686,305 701,305 
			701,308 696,308 696,336.508 717.604,305 726,305 726,308 720,308 720,339 726,339 726,342 		"/>
		<path d="M725.797,305.355v1.26h-6.053v32.781h6.053v1.262H712.18v-1.262h6.053v-31.771h-0.252l-22.695,33.033h-7.816v-1.262h6.051
			v-32.781h-6.051v-1.26h13.617v1.26h-6.053v31.773h0.252l22.695-33.033H725.797z"/>
		<polygon points="763,350 763,342 728,342 728,339 734,339 734,308 728,308 728,305 737,305 737,339 758,339 758,308 751,308 
			751,305 767,305 767,308 760,308 760,339 766,339 766,350 		"/>
		<path d="M728.824,340.658v-1.262h6.051v-32.781h-6.051v-1.26h7.564v34.041h22.191v-32.781h-6.053v-1.26h13.617v1.26h-6.053v32.781
			h5.799v9.33h-1.512v-8.068H728.824z"/>
		<polygon points="793,342 793,339 799,339 799,309.506 777.346,342 768,342 768,339 774,339 774,308 768,308 768,305 783,305 
			783,308 777,308 777,336.508 799.305,305 808,305 808,308 802,308 802,339 808,339 808,342 		"/>
		<path d="M807.498,305.355v1.26h-6.051v32.781h6.051v1.262h-13.615v-1.262h6.051v-31.771h-0.252l-22.693,33.033h-7.816v-1.262
			h6.051v-32.781h-6.051v-1.26h13.615v1.26h-6.051v31.773h0.252l22.693-33.033H807.498z"/>
		<polygon points="834,342 834,339 840,339 840,309.506 818.701,342 809,342 809,339 816,339 816,308 809,308 809,305 825,305 
			825,308 818,308 818,336.508 840.662,305 849,305 849,308 843,308 843,339 849,339 849,342 		"/>
		<path d="M848.855,305.355v1.26h-6.053v32.781h6.053v1.262h-13.617v-1.262h6.053v-31.771h-0.252l-22.695,33.033h-7.816v-1.262
			h6.051v-32.781h-6.051v-1.26h13.617v1.26h-6.053v31.773h0.252l22.695-33.033H848.855z"/>
	</g>
	<g id="Your_Icon_3_">
		<path d="M305.477,318.43c-7.676,0-13.629-6.895-17.227-19.926c-1.244-4.508,0.592-8.734,2.369-12.818
			c2.131-4.892,4.139-9.511,1.646-14.898c-4.824-10.42-8.459-16.301-8.492-16.36l-0.699-1.126l10.43-3.15l0.402,0.698
			c0.719,1.24,17.49,30.384,19.24,35.323c0.217,0.602,0.586,1.479,1.018,2.49c2.279,5.381,6.533,15.395,3.641,22.422
			c-1.135,2.766-3.258,4.799-6.312,6.053C309.408,317.994,307.383,318.43,305.477,318.43z M286.174,254.487
			c1.285,2.201,4.273,7.539,7.938,15.446c2.875,6.219,0.484,11.717-1.631,16.564c-1.705,3.934-3.324,7.648-2.273,11.465
			c2.32,8.406,6.854,18.432,15.268,18.432c1.639,0,3.406-0.383,5.248-1.137c2.566-1.055,4.268-2.674,5.203-4.947
			c2.566-6.244-1.467-15.746-3.633-20.854c-0.461-1.088-0.824-1.947-1.061-2.605c-1.547-4.357-16.064-29.732-18.684-34.288
			L286.174,254.487z"/>
		<path d="M283.635,252.899l15.521-8.617l9.658-2.712c0,0,16.947,30.792,19.799,37.812c2.852,7.018,9.701,23.17,1.107,28.396
			c-8.596,5.23-19.32,9.594-19.32,9.594s6.613-3.859,7.264-7.355c0.656-3.5,2.924-10.867-10.564-35.029
			c-13.486-24.163-13.486-24.163-13.486-24.163l-9.025,3.352L283.635,252.899z M327.557,286.488l-10.926,5.344l1.188,3.893
			l11.008-5.061L327.557,286.488z"/>
	</g>
</g>
</svg>
